PathFileType	4	(X/Y/Z)	D:\MotionData\NordSprintingStudy\BertecTesting2023-09-14\Generated_files\Trimmed_running_0600000001-Feet.trc
DataRate	CameraRate	NumFrames	NumMarkers	Units	OrigDataRate	OrigDataStartFrame	OrigNumFrames
200.00	200.00	      19	10	mm	200.00	476	      1900
Frame#	Time	r_calc			r_toe			r_meta			r_ankle			r_mankle			l_calc			l_toe			l_meta			l_ankle			l_mankle			
		X1	Y1	Z1	X2	Y2	Z2	X3	Y3	Z3	X4	Y4	Z4	X5	Y5	Z5	X6	Y6	Z6	X7	Y7	Z7	X8	Y8	Z8	X9	Y9	Z9	X10	Y10	Z10	

476	2.375	932.16858	348.89780	58.04552	1147.60486	305.75577	52.32911	1099.82813	263.17651	45.46136	1002.98706	287.98117	104.47794	1025.89880	372.96512	112.65715	875.66766	379.57916	741.05438	795.25250	427.08292	544.58105	800.06573	469.86942	607.45685	897.94818	444.22516	672.98737	901.13550	367.76993	633.71179	
477	2.380	902.14746	346.36459	60.17046	1117.46228	304.35281	51.96159	1069.68469	261.90875	45.38392	975.07666	285.08798	105.09743	996.24707	370.82898	113.68740	878.88458	379.49124	728.05164	813.18909	428.83963	526.36273	812.89526	469.25421	589.60931	905.71661	444.63217	662.08356	911.84259	368.02893	623.35486	
478	2.385	872.10541	344.01471	63.63906	1086.70435	304.34558	51.51026	1039.48108	260.87155	45.45948	946.27570	282.41968	105.87957	966.18274	368.51486	115.42841	880.80078	379.93713	712.81403	832.15741	429.08313	506.40085	826.25330	468.72437	569.39874	912.80060	445.01382	649.78796	922.02240	367.96387	611.51550	
479	2.390	842.49261	341.89166	68.10882	1056.28516	303.99338	51.29414	1009.27301	260.48041	45.54684	917.26111	281.07156	108.03500	937.55988	366.70618	118.17900	882.17877	380.60596	695.46600	852.53125	427.85663	485.43204	840.77216	468.34399	547.46954	919.73749	444.80127	635.90265	932.17004	368.08862	598.19446	
480	2.395	813.28827	340.49808	74.36343	1025.68494	303.89960	50.87093	979.17657	259.88757	45.88507	888.76300	278.66339	111.35648	909.33075	364.97849	121.90620	883.81476	381.87012	676.00842	874.47821	427.13123	463.82608	856.79272	468.52811	523.57587	927.42090	446.25800	618.63708	942.68878	368.11322	583.70062	
481	2.400	784.86597	339.00134	81.88384	995.25977	303.50494	50.62158	947.28308	258.76492	44.45784	861.11188	276.93790	115.46477	881.64264	363.46497	125.91287	886.28290	383.41617	654.05072	897.68091	426.65121	441.85629	874.77716	468.57291	498.81580	935.42657	448.36237	601.77527	953.90131	368.60822	567.91846	
482	2.405	757.24542	337.85211	90.67269	964.68073	303.94571	50.43189	917.25043	258.72839	44.71189	833.54504	275.69946	120.00155	854.36932	361.68243	131.04874	890.02710	384.85782	630.28064	922.19550	424.80167	420.01328	894.59442	468.48486	473.79709	945.60345	448.64127	581.53925	965.79480	368.46082	550.87122	
483	2.410	730.89374	336.23068	100.99586	934.81573	303.33698	50.07628	887.37891	258.53464	44.68913	807.64026	273.84714	126.56586	828.90845	359.31638	136.72575	895.72083	385.91296	604.83337	948.39789	420.32037	394.77496	916.25433	468.70227	448.59674	956.31592	449.46967	561.73492	978.54877	368.34515	533.08936	
484	2.415	705.79700	334.50458	112.37198	905.24805	302.89145	50.15822	858.10675	258.19614	45.27376	782.83929	271.61917	133.62393	803.90454	356.49469	143.27382	903.74445	387.35516	577.67426	973.79364	418.39578	376.79108	938.71185	469.73410	424.68448	969.17334	449.08060	539.87012	993.16174	368.57861	513.95789	
485	2.420	682.53577	332.48285	124.76613	876.20953	301.95313	50.02910	829.32751	257.44269	46.02368	759.53278	268.85211	141.80849	780.65790	352.96262	150.25990	914.58484	388.77411	549.31293	1006.34485	423.14038	356.88879	965.91901	469.00497	399.55780	983.98993	448.87494	517.45496	1005.97150	368.28668	496.44699	
486	2.425	661.62769	329.40567	138.10912	847.42279	300.54346	49.94842	801.12103	256.44440	47.07254	737.79517	264.97543	150.93486	759.81171	348.49957	157.82065	926.22546	388.10864	522.09857	1036.58154	424.09274	338.10016	993.22217	471.31015	375.80045	1000.43909	448.13455	494.90247	1022.28302	367.70319	477.26358	
487	2.430	643.18646	325.78271	152.85408	819.35675	300.01431	49.96730	773.66498	255.11623	48.63500	718.70923	260.41064	160.57715	742.17328	343.45682	166.17386	943.49078	387.03455	493.52740	1067.81458	424.39029	319.97977	1020.43146	469.53354	354.64542	1018.10376	447.91925	473.33978	1042.59631	367.01071	456.25156	
488	2.435	626.89178	320.99152	168.82990	792.49457	298.46738	51.06435	747.80920	253.11674	51.47675	702.14746	255.15065	169.77571	726.98444	338.28735	173.84972	962.23627	385.57886	467.11658	1099.60437	425.09891	302.38474	1049.56689	469.86337	333.67450	1037.25415	447.07605	451.88327	1065.38623	366.28064	434.62061	
489	2.440	611.78284	314.75412	185.89616	768.25519	296.56100	52.90755	723.08173	250.57671	56.76405	685.74213	249.88068	179.65343	711.22974	331.97299	182.81450	982.14563	384.92029	435.82693	1132.43579	426.07889	286.62143	1079.31128	469.97372	313.75812	1057.63354	446.56982	430.90262	1089.12769	365.58438	413.58041	
490	2.445	596.77905	307.27359	203.83919	744.78705	293.85645	56.84314	700.04584	247.77933	64.59811	669.81458	244.38968	191.08307	694.02545	328.91577	194.60585	1004.02704	383.15308	407.67557	1165.28320	426.88705	271.13000	1110.01782	469.99826	294.93890	1079.97180	443.92407	409.43396	1112.83936	364.72742	393.96277	
491	2.450	581.32245	298.77759	222.45563	721.00958	291.10315	63.43789	678.30878	243.61232	75.25001	654.85516	238.89494	204.39276	676.96942	323.76617	207.43742	1027.76990	380.27319	380.02121	1198.72192	427.54593	257.30875	1141.26379	469.79041	277.33643	1102.54651	442.37561	389.07739	1137.33533	362.94556	375.27390	
492	2.455	565.68359	290.17871	242.45706	697.64636	287.89011	72.79336	656.54010	239.33142	88.01669	640.07306	233.67697	219.46297	659.03918	318.85623	222.10738	1052.68481	377.37646	353.28680	1232.19141	427.59705	244.76006	1173.31628	469.10110	261.05316	1126.39648	439.69876	368.66037	1162.53198	360.94562	357.33688	
493	2.460	550.07727	282.08527	263.17255	673.69525	284.46741	85.13443	633.93671	234.25021	102.53912	624.83331	228.68846	235.84547	641.33929	314.14438	238.96729	1078.81348	374.67017	327.30521	1265.49231	426.89050	233.37730	1205.61609	468.08987	245.90877	1151.58777	437.67764	349.28445	1188.17834	358.87875	340.07599	
494	2.465	535.13098	275.34204	284.57867	650.62512	281.17728	101.88588	613.30017	231.63168	120.91628	609.80273	223.83881	253.20956	623.66656	310.68069	255.61398	1105.78186	371.60620	302.52652	1298.58411	425.68646	223.09213	1237.78235	466.57660	231.83603	1175.65686	434.69543	330.41864	1213.89221	356.59674	323.71335	
